<svg data-name="Layer 1" xmlns="http://www.w3.org/2000/svg" viewBox="0 0 20 20"><title>mdi-wordpress</title><path d="M10.2 13.5l-2.55 6.22A10.08 10.08 0 0 0 10 20a9.83 9.83 0 0 0 2.44-.3m6.17-14.64a6.4 6.4 0 0 1-.22 3.19C17.42 11.37 15 17 14.1 19.13a9.89 9.89 0 0 0 5.9-9 9.7 9.7 0 0 0-1.39-5M2.31 6.64a1.64 1.64 0 0 0-1-.64H.78A10.37 10.37 0 0 0 0 10a9.86 9.86 0 0 0 6.12 9.11m-5-14A10 10 0 0 1 10 0a10.13 10.13 0 0 1 6.53 2.56 2.3 2.3 0 0 0-1.6.33 2.24 2.24 0 0 0 0 3.87A3.91 3.91 0 0 1 16.27 10c0 1-2.42 5.57-2.42 5.57l-2.35-8s-.06-.56-.06-.72a1 1 0 0 1 .19-.6A.74.74 0 0 1 12 6h1.11v-.86h-6V6h.19a1.22 1.22 0 0 1 .57.47 9.45 9.45 0 0 1 .83 2l.87 2.87-1.88 4.29L5.63 7a1.75 1.75 0 0 1 .19-.7.61.61 0 0 1 .35-.3h.05v-.86H1.13z"/></svg>