<svg id="08f2392c-88c5-4a46-a216-d7b40c577ec5" data-name="Layer 1" xmlns="http://www.w3.org/2000/svg" viewBox="0 0 20 20"><title>mdi-wordpress</title><path d="M12.2,15.5L9.65,21.72A10.08,10.08,0,0,0,12,22a9.83,9.83,0,0,0,2.44-.3M20.61,7.06a6.4,6.4,0,0,1-.22,3.19C19.42,13.37,17,19,16.1,21.13a9.89,9.89,0,0,0,5.9-9,9.7,9.7,0,0,0-1.39-5M4.31,8.64a1.64,1.64,0,0,0-1-.64H2.78A10.37,10.37,0,0,0,2,12a9.86,9.86,0,0,0,6.12,9.11m-5-14A10,10,0,0,1,12,2a10.13,10.13,0,0,1,6.53,2.56,2.3,2.3,0,0,0-1.6.33,2.24,2.24,0,0,0,0,3.87A3.91,3.91,0,0,1,18.27,12c0,1-2.42,5.57-2.42,5.57l-2.35-8s-0.06-.56-0.06-0.72a1,1,0,0,1,.19-0.6A0.74,0.74,0,0,1,14,8h1.11V7.14h-6V8H9.3a1.22,1.22,0,0,1,.57.47,9.45,9.45,0,0,1,.83,2l0.87,2.87L9.69,17.63,7.63,9a1.75,1.75,0,0,1,.19-0.7A0.61,0.61,0,0,1,8.17,8H8.22V7.14H3.13Z" transform="translate(-2 -2)"/></svg>