<svg id="Layer_1" xmlns="http://www.w3.org/2000/svg" viewBox="0 0 18.5 18.5"><style>.st0{fill:#24408f}</style><title>icon-link</title><path class="st0" d="M8.2 10.3c.3.3.3.7 0 1-.3.3-.7.3-1 0-1.4-1.4-1.4-3.7 0-5.2l2.6-2.6C11.2 2 13.5 2 15 3.4s1.5 3.7.1 5.2l-.1.1-1.1 1.1c0-.6-.1-1.2-.3-1.8l.3-.4c.9-.8.9-2.2.1-3.1s-2.2-.9-3.1-.1l-.1.1-2.6 2.7c-.8.8-.8 2.2 0 3.1m2.1-3.1c.3-.3.7-.3 1 0 1.4 1.4 1.4 3.7 0 5.2L8.7 15c-1.4 1.4-3.7 1.4-5.2 0S2 11.3 3.4 9.8l.1-.1 1.1-1.1c0 .6.1 1.2.3 1.8l-.3.3c-.8.9-.8 2.3.1 3.1.8.8 2.1.8 3 0l2.6-2.6c.9-.9.9-2.2 0-3.1-.3-.2-.3-.6 0-.9z"/></svg>