<?xml version="1.0" encoding="utf-8"?>
<!-- Generator: Adobe Illustrator 18.1.0, SVG Export Plug-In . SVG Version: 6.00 Build 0)  -->
<!DOCTYPE svg PUBLIC "-//W3C//DTD SVG 1.1//EN" "http://www.w3.org/Graphics/SVG/1.1/DTD/svg11.dtd">
<svg version="1.1" id="Layer_1" opacity="0.6" xmlns="http://www.w3.org/2000/svg" xmlns:xlink="http://www.w3.org/1999/xlink"
	 x="0px" y="0px" viewBox="0 0 14.9 50.5" enable-background="new 0 0 14.9 50.5" xml:space="preserve">
<pattern  x="-307.5" y="-20.4" width="48" height="162" patternUnits="userSpaceOnUse" id="Unnamed_Pattern" viewBox="0 -162 48 162" overflow="visible">
	<g>
		<polygon fill="none" points="0,0 48,0 48,-162 0,-162 		"/>
		<path fill="none" d="M38.1-121.4c-0.1-0.2-0.2-0.3-0.2-0.6c0-0.2,0.1-0.5,0.2-0.6l9.8-17v-20.8l-21.9,38.1
			c-0.1,0.2-0.2,0.3-0.2,0.5c0,0.2,0.1,0.5,0.2,0.6c0,0,0.2,0.4,0.2,0.4L48-82.4v-21.3l-9.8-17.4C38.2-121.2,38.1-121.4,38.1-121.4z
			"/>
		<polygon fill="none" points="0,-139.6 12.9,-162 0.9,-162 0,-160.5 		"/>
		<path fill="none" d="M35.7-40.2c0.1-0.2,0.2-0.4,0.2-0.6c0-0.2-0.1-0.4-0.2-0.5L12.9-81h-0.2L0-103.7v21.3L0.8-81h0.2l22.7,39.4
			c0.1,0.2,0.2,0.4,0.2,0.6c0,0.2-0.1,0.4-0.2,0.6c0,0,0,0.3,0,0.3L1.1,0h12l22.4-39.8C35.5-39.8,35.6-40.2,35.7-40.2z"/>
		<polygon fill="#E6E6E6" points="0.9,-162 0,-162 0,-160.5 		"/>
		<polygon fill="#E6E6E6" points="0.8,-81 0,-82.4 0,-81 		"/>
		<path fill="#CCCCCC" d="M0-103.7L12.8-81h0.2h11.8L2.4-120.8c0,0-0.2-0.4-0.2-0.4c-0.1-0.2-0.2-0.4-0.2-0.6c0-0.2,0.1-0.4,0.2-0.5
			L24.9-162h-12L0-139.6V-103.7z"/>
		<path fill="#E6E6E6" d="M47.7-40.4c0.1-0.2,0.2-0.3,0.2-0.6c0-0.2-0.1-0.5-0.2-0.6L24.9-81h-0.2H12.9l22.8,39.6
			c0.1,0.2,0.2,0.3,0.2,0.5c0,0.2-0.1,0.5-0.2,0.6c0,0-0.2,0.4-0.2,0.4L13.1,0h12l22.6-40.1C47.7-40.2,47.7-40.4,47.7-40.4z"/>
		<path fill="#CCCCCC" d="M23.7-40.4c0.1-0.2,0.2-0.3,0.2-0.6c0-0.2-0.1-0.5-0.2-0.6L0.9-81H0.8H0v19.2l11.7,20.4
			c0.1,0.2,0.2,0.3,0.2,0.5c0,0.2-0.1,0.5-0.2,0.6c0,0-0.2,0.4-0.2,0.4L0-19.4V0h1.1l22.6-40.1C23.7-40.2,23.7-40.4,23.7-40.4z"/>
		<path fill="#E6E6E6" d="M26.2-121.2c-0.1-0.2-0.2-0.4-0.2-0.6c0-0.2,0.1-0.4,0.2-0.5L48-160.5v-1.5H36.9l-22.7,39.4
			c-0.1,0.2-0.2,0.4-0.2,0.6c0,0.2,0.1,0.4,0.2,0.6c0,0,0,0.3,0,0.3L36.8-81h0.2H48v-1.4l-21.6-38.4
			C26.3-120.8,26.2-121.2,26.2-121.2z"/>
		<path fill="#CCCCCC" d="M38.2-122.6c-0.1,0.2-0.2,0.4-0.2,0.6c0,0.2,0.1,0.4,0.2,0.6c0,0,0,0.3,0,0.3l9.8,17.4v-36L38.2-122.6z"/>
		<polygon fill="#CCCCCC" points="37.1,0 48,0 48,-19.4 		"/>
		<polygon fill="#CCCCCC" points="48,-81 36.9,-81 48,-61.8 		"/>
	</g>
</pattern>
<pattern  id="SVGID_1_" xlink:href="#Unnamed_Pattern" patternTransform="matrix(0.3107 0 0 0.3107 -4987.9346 -5252.2437)"  opacity="0.6">
</pattern>
<rect x="0" y="0" opacity="0.5" fill="url(#SVGID_1_)" width="14.9" height="50.5"/>
</svg>
